<svg width="14" height="14" viewBox="0 0 14 14" fill="none" xmlns="http://www.w3.org/2000/svg">
<rect width="14" height="14" fill="url(#paint0_linear_4433_30444)"/>
<path d="M7.9903 3.05859L4.59766 11.2792H5.65953L9.01505 3.05859H7.9903Z" fill="#FAFAFA"/>
<mask id="path-2-inside-1_4433_30444" fill="white">
<path fill-rule="evenodd" clip-rule="evenodd" d="M3.15409 4.29056C3.10534 4.27914 3.05597 4.26932 3.00603 4.26119C2.99822 4.25993 2.99042 4.25869 2.98259 4.2575L2.98021 4.25714L2.977 4.25666C2.97206 4.25593 2.96664 4.25514 2.9558 4.25358L2.95201 4.25302C2.87246 4.24067 2.86873 4.12747 2.94729 4.1099L2.95104 4.10909C2.96175 4.10682 2.9671 4.10568 2.97198 4.10462L2.97515 4.10393L2.97751 4.10342C2.98524 4.10172 2.99294 4.09996 3.00065 4.09819C3.04995 4.08679 3.09856 4.07373 3.14646 4.05913C3.18736 4.04663 3.22775 4.033 3.26755 4.01826C3.91179 3.77964 4.40741 3.25014 4.60305 2.59163C4.61513 2.55094 4.62608 2.50974 4.63585 2.4681C4.64727 2.41935 4.65709 2.36998 4.66522 2.32004C4.66648 2.31223 4.66772 2.30442 4.66891 2.2966L4.66926 2.29422L4.66975 2.29101C4.67048 2.28614 4.67125 2.2808 4.67276 2.27023L4.67283 2.26981L4.67338 2.26602C4.68574 2.18647 4.79893 2.18274 4.81651 2.26129L4.81731 2.26505C4.81958 2.27576 4.82073 2.28111 4.82178 2.28599L4.82248 2.28916L4.82299 2.29152C4.82469 2.29925 4.82644 2.30695 4.82822 2.31466C4.83962 2.36395 4.85267 2.41257 4.86728 2.46047C4.87977 2.50137 4.89341 2.54176 4.90815 2.58156C5.14677 3.2258 5.67626 3.72142 6.33478 3.91706C6.37547 3.92914 6.41667 3.94009 6.45831 3.94986C6.50706 3.96127 6.55643 3.97109 6.60637 3.97923C6.61418 3.98049 6.62198 3.98173 6.62981 3.98291L6.63219 3.98327L6.6354 3.98376L6.64047 3.9845L6.65659 3.98683L6.66039 3.98739C6.73993 3.99975 6.74367 4.11294 6.66511 4.13051L6.66136 4.13132L6.64912 4.13391L6.64041 4.13579L6.63725 4.13648L6.63489 4.137C6.62716 4.1387 6.61945 4.14045 6.61175 4.14222C6.56245 4.15363 6.51384 4.16668 6.46594 4.18129C6.42504 4.19378 6.38465 4.20742 6.34484 4.22216C5.70061 4.46078 5.20499 4.99027 5.00935 5.64879C4.99726 5.68948 4.98632 5.73068 4.97655 5.77231C4.96513 5.82107 4.95531 5.87044 4.94718 5.92038C4.94592 5.92818 4.94468 5.93599 4.94349 5.94381L4.94313 5.9462L4.94265 5.94941C4.94192 5.95427 4.94115 5.95961 4.93963 5.97018L4.93901 5.9744C4.92666 6.05394 4.81346 6.05768 4.79589 5.97912L4.79509 5.97537C4.79281 5.96468 4.79167 5.95929 4.79062 5.95442L4.78992 5.95126L4.78941 5.9489C4.78771 5.94117 4.78596 5.93346 4.78418 5.92576C4.77278 5.87646 4.75972 5.82785 4.74512 5.77995C4.73262 5.73905 4.71899 5.69866 4.70425 5.65885C4.46563 5.01462 3.93613 4.519 3.27762 4.32335C3.23693 4.31127 3.19573 4.30033 3.15409 4.29056Z"/>
</mask>
<path fill-rule="evenodd" clip-rule="evenodd" d="M3.15409 4.29056C3.10534 4.27914 3.05597 4.26932 3.00603 4.26119C2.99822 4.25993 2.99042 4.25869 2.98259 4.2575L2.98021 4.25714L2.977 4.25666C2.97206 4.25593 2.96664 4.25514 2.9558 4.25358L2.95201 4.25302C2.87246 4.24067 2.86873 4.12747 2.94729 4.1099L2.95104 4.10909C2.96175 4.10682 2.9671 4.10568 2.97198 4.10462L2.97515 4.10393L2.97751 4.10342C2.98524 4.10172 2.99294 4.09996 3.00065 4.09819C3.04995 4.08679 3.09856 4.07373 3.14646 4.05913C3.18736 4.04663 3.22775 4.033 3.26755 4.01826C3.91179 3.77964 4.40741 3.25014 4.60305 2.59163C4.61513 2.55094 4.62608 2.50974 4.63585 2.4681C4.64727 2.41935 4.65709 2.36998 4.66522 2.32004C4.66648 2.31223 4.66772 2.30442 4.66891 2.2966L4.66926 2.29422L4.66975 2.29101C4.67048 2.28614 4.67125 2.2808 4.67276 2.27023L4.67283 2.26981L4.67338 2.26602C4.68574 2.18647 4.79893 2.18274 4.81651 2.26129L4.81731 2.26505C4.81958 2.27576 4.82073 2.28111 4.82178 2.28599L4.82248 2.28916L4.82299 2.29152C4.82469 2.29925 4.82644 2.30695 4.82822 2.31466C4.83962 2.36395 4.85267 2.41257 4.86728 2.46047C4.87977 2.50137 4.89341 2.54176 4.90815 2.58156C5.14677 3.2258 5.67626 3.72142 6.33478 3.91706C6.37547 3.92914 6.41667 3.94009 6.45831 3.94986C6.50706 3.96127 6.55643 3.97109 6.60637 3.97923C6.61418 3.98049 6.62198 3.98173 6.62981 3.98291L6.63219 3.98327L6.6354 3.98376L6.64047 3.9845L6.65659 3.98683L6.66039 3.98739C6.73993 3.99975 6.74367 4.11294 6.66511 4.13051L6.66136 4.13132L6.64912 4.13391L6.64041 4.13579L6.63725 4.13648L6.63489 4.137C6.62716 4.1387 6.61945 4.14045 6.61175 4.14222C6.56245 4.15363 6.51384 4.16668 6.46594 4.18129C6.42504 4.19378 6.38465 4.20742 6.34484 4.22216C5.70061 4.46078 5.20499 4.99027 5.00935 5.64879C4.99726 5.68948 4.98632 5.73068 4.97655 5.77231C4.96513 5.82107 4.95531 5.87044 4.94718 5.92038C4.94592 5.92818 4.94468 5.93599 4.94349 5.94381L4.94313 5.9462L4.94265 5.94941C4.94192 5.95427 4.94115 5.95961 4.93963 5.97018L4.93901 5.9744C4.92666 6.05394 4.81346 6.05768 4.79589 5.97912L4.79509 5.97537C4.79281 5.96468 4.79167 5.95929 4.79062 5.95442L4.78992 5.95126L4.78941 5.9489C4.78771 5.94117 4.78596 5.93346 4.78418 5.92576C4.77278 5.87646 4.75972 5.82785 4.74512 5.77995C4.73262 5.73905 4.71899 5.69866 4.70425 5.65885C4.46563 5.01462 3.93613 4.519 3.27762 4.32335C3.23693 4.31127 3.19573 4.30033 3.15409 4.29056Z" fill="#FAFAFA"/>
<path d="M3.15409 4.29056L5.43873 -5.44497L5.43401 -5.44607L3.15409 4.29056ZM3.00603 4.26119L4.61295 -5.60886L4.60092 -5.61081L3.00603 4.26119ZM2.98259 4.2575L4.47997 -5.62977L4.46674 -5.63175L2.98259 4.2575ZM2.98021 4.25714L1.4905 14.1456L1.49606 14.1464L2.98021 4.25714ZM2.977 4.25666L4.46671 -5.63176L4.4519 -5.63399L4.43708 -5.63617L2.977 4.25666ZM2.9558 4.25358L1.50154 14.1473L1.51611 14.1494L1.53068 14.1515L2.9558 4.25358ZM2.95201 4.25302L1.41705 14.1345L1.45737 14.1408L1.49774 14.1467L2.95201 4.25302ZM2.94729 4.1099L0.843431 -5.66628L0.803842 -5.65776L0.764323 -5.64892L2.94729 4.1099ZM2.95104 4.10909L0.876662 -5.67339L0.861918 -5.67026L0.847183 -5.66709L2.95104 4.10909ZM2.97198 4.10462L5.08098 13.8797L5.09526 13.8766L5.10954 13.8735L2.97198 4.10462ZM2.97515 4.10393L0.843335 -5.6662L0.837597 -5.66494L2.97515 4.10393ZM2.97751 4.10342L5.10932 13.8735L5.11631 13.872L5.12329 13.8705L2.97751 4.10342ZM3.00065 4.09819L5.2428 13.8436L5.25467 13.8409L3.00065 4.09819ZM3.14646 4.05913L6.06324 13.6243L6.06796 13.6229L3.14646 4.05913ZM3.26755 4.01826L6.73962 13.3961L6.74088 13.3957L3.26755 4.01826ZM4.60305 2.59163L14.1889 5.43957L14.1894 5.43796L4.60305 2.59163ZM4.63585 2.4681L14.3714 4.75274L14.3725 4.74802L4.63585 2.4681ZM4.66522 2.32004L14.5353 3.92696L14.5372 3.91493L4.66522 2.32004ZM4.66891 2.2966L14.5562 3.79398L14.5582 3.78075L4.66891 2.2966ZM4.66926 2.29422L-5.21925 0.805163L-5.21999 0.810066L4.66926 2.29422ZM4.66975 2.29101L14.5583 3.78006L14.5585 3.77831L4.66975 2.29101ZM4.67276 2.27023L-5.2192 0.804274L-5.22289 0.829142L-5.22645 0.854028L4.67276 2.27023ZM4.67283 2.26981L14.5648 3.73577L14.5665 3.72402L4.67283 2.26981ZM4.67338 2.26602L-5.20811 0.731059L-5.21438 0.771408L-5.22032 0.811807L4.67338 2.26602ZM4.81651 2.26129L14.5927 0.157494L14.5842 0.117878L14.5753 0.0783316L4.81651 2.26129ZM4.81731 2.26505L14.5998 0.190671L14.5967 0.175954L14.5935 0.161246L4.81731 2.26505ZM4.82178 2.28599L-4.9533 4.39499L-4.95012 4.4097L-4.9469 4.42439L4.82178 2.28599ZM4.82248 2.28916L14.5924 0.156471L14.5912 0.150758L4.82248 2.28916ZM4.82299 2.29152L-4.94695 4.42421L-4.94408 4.4373L4.82299 2.29152ZM4.82822 2.31466L-4.91719 4.55681L-4.91444 4.56867L4.82822 2.31466ZM4.86728 2.46047L-4.69789 5.37725L-4.69645 5.38197L4.86728 2.46047ZM4.90815 2.58156L-4.46974 6.05363L-4.46927 6.05489L4.90815 2.58156ZM6.33478 3.91706L3.48684 13.5029L3.48844 13.5034L6.33478 3.91706ZM6.45831 3.94986L4.17366 13.6854L4.17839 13.6865L6.45831 3.94986ZM6.60637 3.97923L4.99945 13.8493L5.01147 13.8512L6.60637 3.97923ZM6.62981 3.98291L5.13243 13.8702L5.14557 13.8722L6.62981 3.98291ZM6.63219 3.98327L8.12177 -5.90517L8.11643 -5.90597L6.63219 3.98327ZM6.6354 3.98376L5.14582 13.8722L5.16537 13.8751L5.18494 13.878L6.6354 3.98376ZM6.64047 3.9845L5.19001 13.8787L5.1985 13.88L5.20698 13.8812L6.64047 3.9845ZM6.65659 3.98683L8.11136 -5.90678L8.10072 -5.90835L8.09009 -5.90989L6.65659 3.98683ZM6.66039 3.98739L8.19535 -5.8941L8.15528 -5.90033L8.11516 -5.90622L6.66039 3.98739ZM6.66511 4.13051L8.76825 13.9069L8.8082 13.8983L8.84808 13.8893L6.66511 4.13051ZM6.66136 4.13132L8.72998 13.915L8.74725 13.9114L8.7645 13.9077L6.66136 4.13132ZM6.64912 4.13391L4.5805 -5.64979L4.55872 -5.64519L4.53697 -5.64049L6.64912 4.13391ZM6.64041 4.13579L4.52826 -5.6386L4.51526 -5.6358L4.50228 -5.63295L6.64041 4.13579ZM6.63725 4.13648L8.77011 13.9064L8.77538 13.9052L6.63725 4.13648ZM6.63489 4.137L4.50202 -5.63291L4.48911 -5.63007L6.63489 4.137ZM6.61175 4.14222L4.3696 -5.60318L4.35773 -5.60044L6.61175 4.14222ZM6.46594 4.18129L3.54916 -5.38388L3.54444 -5.38244L6.46594 4.18129ZM6.34484 4.22216L2.87277 -5.15573L2.87151 -5.15526L6.34484 4.22216ZM5.00935 5.64879L-4.57654 2.80085L-4.57702 2.80245L5.00935 5.64879ZM4.97655 5.77231L-4.75898 3.48767L-4.76008 3.49239L4.97655 5.77231ZM4.94718 5.92038L-4.92287 4.31346L-4.92482 4.32548L4.94718 5.92038ZM4.94349 5.94381L-4.94377 4.44644L-4.94575 4.45958L4.94349 5.94381ZM4.94313 5.9462L14.8316 7.43578L14.8324 7.43044L4.94313 5.9462ZM4.94265 5.94941L-4.94578 4.45983L-4.94613 4.46211L4.94265 5.94941ZM4.93963 5.97018L14.8331 7.42606L14.836 7.40623L14.8388 7.38639L4.93963 5.97018ZM4.93901 5.9744L14.8205 7.50936L14.8266 7.46984L14.8325 7.43028L4.93901 5.9744ZM4.79589 5.97912L-4.98045 8.08226L-4.97185 8.12221L-4.96293 8.16208L4.79589 5.97912ZM4.79509 5.97537L-4.98675 8.05279L-4.98402 8.06565L-4.98125 8.07851L4.79509 5.97537ZM4.79062 5.95442L14.5643 3.83878L14.5619 3.82789L14.5595 3.817L4.79062 5.95442ZM4.78992 5.95126L-4.97998 8.08412L-4.97898 8.08868L4.78992 5.95126ZM4.78941 5.9489L14.5593 3.81603L14.5565 3.80312L4.78941 5.9489ZM4.78418 5.92576L14.5296 3.68361L14.5268 3.67174L4.78418 5.92576ZM4.74512 5.77995L14.3103 2.86317L14.3088 2.85845L4.74512 5.77995ZM4.70425 5.65885L14.0821 2.18678L14.0817 2.18552L4.70425 5.65885ZM3.27762 4.32335L6.12556 -5.26253L6.12395 -5.26301L3.27762 4.32335ZM5.43401 -5.44607C5.16565 -5.50891 4.89184 -5.56345 4.61295 -5.60886L1.39911 14.1312C1.2201 14.1021 1.04502 14.0672 0.874172 14.0272L5.43401 -5.44607ZM4.60092 -5.61081C4.57993 -5.6142 4.53516 -5.6214 4.47997 -5.62976L1.48522 14.1448C1.44567 14.1388 1.41652 14.1341 1.41113 14.1332L4.60092 -5.61081ZM4.46674 -5.63175L4.46436 -5.63211L1.49606 14.1464L1.49844 14.1468L4.46674 -5.63175ZM4.46992 -5.63127L4.46671 -5.63176L1.48729 14.1451L1.4905 14.1456L4.46992 -5.63127ZM4.43708 -5.63617C4.41561 -5.63934 4.39722 -5.642 4.38093 -5.64435L1.53068 14.1515C1.53362 14.1519 1.53289 14.1518 1.53016 14.1514C1.52658 14.1509 1.52196 14.1502 1.51692 14.1495L4.43708 -5.63617ZM4.41007 -5.64011L4.40627 -5.64067L1.49774 14.1467L1.50154 14.1473L4.41007 -5.64011ZM4.48697 -5.62847C15.3226 -3.94529 15.8314 11.475 5.13025 13.8687L0.764323 -5.64892C-10.094 -3.22002 -9.57771 12.4266 1.41705 14.1345L4.48697 -5.62847ZM5.05114 13.8861L5.05489 13.8853L0.847183 -5.66709L0.843431 -5.66628L5.05114 13.8861ZM5.02541 13.8916C5.04166 13.8881 5.05981 13.8843 5.08098 13.8797L0.862989 -5.67045C0.867912 -5.67152 0.872472 -5.67249 0.876044 -5.67326C0.878767 -5.67384 0.879527 -5.674 0.876662 -5.67339L5.02541 13.8916ZM5.10954 13.8735L5.11271 13.8728L0.837597 -5.66494L0.83443 -5.66425L5.10954 13.8735ZM5.10697 13.8741L5.10932 13.8735L0.845692 -5.66671L0.843335 -5.66619L5.10697 13.8741ZM5.12329 13.8705C5.17788 13.8585 5.22212 13.8483 5.2428 13.8436L0.758507 -5.64721C0.763767 -5.64842 0.792596 -5.65505 0.831726 -5.66365L5.12329 13.8705ZM5.25467 13.8409C5.53 13.7772 5.79963 13.7047 6.06324 13.6243L0.229675 -5.50604C0.397485 -5.55721 0.569888 -5.60358 0.746637 -5.64447L5.25467 13.8409ZM6.06796 13.6229C6.29381 13.5539 6.51781 13.4783 6.73962 13.3961L-0.204517 -5.35963C-0.0623107 -5.41228 0.0809071 -5.46059 0.224956 -5.5046L6.06796 13.6229ZM6.74088 13.3957C10.3371 12.0637 13.097 9.11484 14.1889 5.43957L-4.98284 -0.256309C-4.28221 -2.61456 -2.5135 -4.50439 -0.205777 -5.35916L6.74088 13.3957ZM14.1894 5.43796C14.2567 5.21135 14.3174 4.98283 14.3714 4.75274L-5.09967 0.183459C-5.06522 0.0366448 -5.02644 -0.109468 -4.98331 -0.254707L14.1894 5.43796ZM14.3725 4.74802C14.4353 4.4797 14.4899 4.20588 14.5353 3.92696L-5.20483 0.713119C-5.17568 0.534071 -5.14078 0.358994 -5.10078 0.188181L14.3725 4.74802ZM14.5372 3.91493C14.5406 3.89391 14.5478 3.84915 14.5562 3.79397L-5.21835 0.799227C-5.21237 0.759694 -5.20765 0.730549 -5.20678 0.725144L14.5372 3.91493ZM14.5582 3.78075L14.5585 3.77837L-5.21999 0.810066L-5.22035 0.812451L14.5582 3.78075ZM14.5578 3.78327L14.5583 3.78006L-5.21877 0.801957L-5.21925 0.805163L14.5578 3.78327ZM14.5585 3.77831C14.5653 3.73353 14.5707 3.69535 14.572 3.68644L-5.22645 0.854028C-5.22701 0.857928 -5.22641 0.853725 -5.22537 0.846595C-5.22408 0.837656 -5.22187 0.822556 -5.21903 0.803714L14.5585 3.77831ZM14.5647 3.73619L14.5648 3.73577L-5.21914 0.803854L-5.2192 0.804274L14.5647 3.73619ZM14.5665 3.72402L14.5671 3.72023L-5.22032 0.811807L-5.22087 0.815604L14.5665 3.72402ZM14.5549 3.80097C12.8717 14.6366 -2.54856 15.1454 -4.94232 4.44426L14.5753 0.0783316C12.1464 -10.7799 -3.50022 -10.2637 -5.20811 0.731059L14.5549 3.80097ZM-4.95969 4.36509L-4.95888 4.36885L14.5935 0.161246L14.5927 0.157494L-4.95969 4.36509ZM-4.96517 4.33942C-4.96173 4.35564 -4.95787 4.3738 -4.9533 4.39499L14.5969 0.176999C14.5979 0.181934 14.5989 0.186499 14.5997 0.190068C14.6002 0.192787 14.6004 0.193543 14.5998 0.190671L-4.96517 4.33942ZM-4.9469 4.42439L-4.94621 4.42756L14.5912 0.150758L14.5905 0.147592L-4.9469 4.42439ZM-4.94746 4.42185L-4.94695 4.42421L14.5929 0.158828L14.5924 0.156471L-4.94746 4.42185ZM-4.94408 4.4373C-4.93208 4.4919 -4.92193 4.53615 -4.91718 4.5568L14.5736 0.0725165C14.5748 0.0777516 14.5815 0.10659 14.5901 0.145735L-4.94408 4.4373ZM-4.91444 4.56867C-4.85077 4.84392 -4.7783 5.11355 -4.69789 5.37725L14.4324 -0.456315C14.4836 -0.288412 14.53 -0.116009 14.5709 0.0606461L-4.91444 4.56867ZM-4.69645 5.38197C-4.62745 5.60784 -4.55186 5.83183 -4.46974 6.05363L14.286 -0.890507C14.3387 -0.748319 14.387 -0.605102 14.431 -0.461035L-4.69645 5.38197ZM-4.46927 6.05489C-3.13727 9.65109 -0.188439 12.411 3.48684 13.5029L9.18272 -5.66883C11.541 -4.9682 13.4308 -3.19949 14.2856 -0.891768L-4.46927 6.05489ZM3.48844 13.5034C3.71505 13.5707 3.94357 13.6314 4.17366 13.6854L8.74295 -5.78567C8.88977 -5.75121 9.03588 -5.71243 9.18111 -5.6693L3.48844 13.5034ZM4.17839 13.6865C4.44671 13.7493 4.72052 13.8039 4.99945 13.8493L8.21329 -5.89082C8.39234 -5.86167 8.56742 -5.82677 8.73823 -5.78677L4.17839 13.6865ZM5.01147 13.8512C5.03249 13.8546 5.07725 13.8618 5.13243 13.8702L8.12718 -5.90434C8.16671 -5.89836 8.19586 -5.89364 8.20126 -5.89277L5.01147 13.8512ZM5.14557 13.8722L5.14795 13.8725L8.11643 -5.90597L8.11405 -5.90632L5.14557 13.8722ZM5.14262 13.8717L5.14582 13.8722L8.12497 -5.90468L8.12177 -5.90516L5.14262 13.8717ZM5.18494 13.878L5.19001 13.8787L8.09093 -5.90975L8.08586 -5.91049L5.18494 13.878ZM5.20698 13.8812L5.2231 13.8836L8.09009 -5.90989L8.07397 -5.91222L5.20698 13.8812ZM5.20183 13.8805L5.20562 13.881L8.11516 -5.90622L8.11136 -5.90678L5.20183 13.8805ZM5.12543 13.8689C-5.71024 12.1857 -6.21901 -3.23456 4.48215 -5.62831L8.84808 13.8893C19.7064 11.4604 19.1901 -4.18621 8.19535 -5.8941L5.12543 13.8689ZM4.56197 -5.64582L4.55822 -5.64502L8.7645 13.9077L8.76825 13.9069L4.56197 -5.64582ZM4.59274 -5.65238L4.5805 -5.64979L8.71775 13.9176L8.72998 13.915L4.59274 -5.65238ZM4.53697 -5.64049L4.52826 -5.6386L8.75257 13.9102L8.76128 13.9083L4.53697 -5.64049ZM4.50228 -5.63295L4.49911 -5.63226L8.77538 13.9052L8.77855 13.9045L4.50228 -5.63295ZM4.50438 -5.63341L4.50202 -5.6329L8.76776 13.9069L8.77011 13.9064L4.50438 -5.63341ZM4.48911 -5.63007C4.43453 -5.61808 4.3903 -5.60794 4.3696 -5.60317L8.85389 13.8876C8.84861 13.8888 8.81979 13.8955 8.78067 13.9041L4.48911 -5.63007ZM4.35773 -5.60044C4.08248 -5.53675 3.81285 -5.46429 3.54916 -5.38388L9.38272 13.7465C9.21483 13.7976 9.04243 13.844 8.86576 13.8849L4.35773 -5.60044ZM3.54444 -5.38244C3.31858 -5.31344 3.09459 -5.23785 2.87277 -5.15573L9.81691 13.6C9.67471 13.6527 9.53149 13.701 9.38744 13.745L3.54444 -5.38244ZM2.87151 -5.15526C-0.724679 -3.82326 -3.48463 -0.874431 -4.57654 2.80085L14.5952 8.49672C13.8946 10.855 12.1259 12.7448 9.81817 13.5996L2.87151 -5.15526ZM-4.57702 2.80245C-4.64431 3.02908 -4.70498 3.25759 -4.75897 3.48767L14.7121 8.05696C14.6776 8.20376 14.6388 8.34987 14.5957 8.49512L-4.57702 2.80245ZM-4.76008 3.49239C-4.82293 3.76078 -4.87746 4.03459 -4.92287 4.31346L14.8172 7.5273C14.7881 7.70628 14.7532 7.88136 14.7132 8.05223L-4.76008 3.49239ZM-4.92482 4.32548C-4.9282 4.34641 -4.9354 4.3912 -4.94377 4.44644L14.8308 7.44119C14.8248 7.48078 14.82 7.50996 14.8192 7.51527L-4.92482 4.32548ZM-4.94575 4.45958L-4.9461 4.46196L14.8324 7.43044L14.8327 7.42805L-4.94575 4.45958ZM-4.9453 4.45662L-4.94578 4.45983L14.8311 7.43898L14.8316 7.43578L-4.9453 4.45662ZM-4.94613 4.46211C-4.95288 4.507 -4.95835 4.54538 -4.95958 4.55398L14.8388 7.38639C14.8394 7.3824 14.8388 7.38657 14.8378 7.39366C14.8365 7.40255 14.8343 7.41773 14.8314 7.4367L-4.94613 4.46211ZM-4.95382 4.5143L-4.95444 4.51852L14.8325 7.43028L14.8331 7.42606L-4.95382 4.5143ZM-4.94248 4.43944C-3.2593 -6.39623 12.161 -6.905 14.5547 3.79616L-4.96293 8.16208C-2.53403 19.0204 13.1126 18.5041 14.8205 7.50936L-4.94248 4.43944ZM14.5722 3.87598L14.5714 3.87223L-4.98125 8.07851L-4.98045 8.08226L14.5722 3.87598ZM14.5769 3.89795C14.576 3.89366 14.5703 3.86689 14.5643 3.83878L-4.98303 8.07006C-4.98546 8.05884 -4.98723 8.05054 -4.98774 8.04812C-4.98799 8.04698 -4.98807 8.0466 -4.98785 8.04763C-4.98763 8.04866 -4.98731 8.05016 -4.98675 8.05279L14.5769 3.89795ZM14.5595 3.817L14.5588 3.81383L-4.97898 8.08868L-4.97829 8.09185L14.5595 3.817ZM14.5598 3.81839L14.5593 3.81603L-4.98049 8.08176L-4.97997 8.08412L14.5598 3.81839ZM14.5565 3.80312C14.5445 3.74854 14.5343 3.70431 14.5296 3.68361L-4.96122 8.1679C-4.96243 8.16262 -4.96907 8.1338 -4.97766 8.09468L14.5565 3.80312ZM14.5268 3.67174C14.4631 3.39643 14.3907 3.1268 14.3103 2.86317L-4.82005 8.69673C-4.87123 8.52889 -4.91759 8.35649 -4.95848 8.17977L14.5268 3.67174ZM14.3088 2.85845C14.2398 2.63257 14.1643 2.40858 14.0821 2.18678L-4.67363 9.13092C-4.72628 8.98874 -4.7746 8.84552 -4.81861 8.70145L14.3088 2.85845ZM14.0817 2.18552C12.7497 -1.41067 9.80084 -4.17062 6.12556 -5.26253L0.429681 13.9092C-1.92857 13.2086 -3.8184 11.4399 -4.67317 9.13218L14.0817 2.18552ZM6.12395 -5.26301C5.89734 -5.33029 5.66883 -5.39097 5.43873 -5.44497L0.86945 14.0261C0.722631 13.9916 0.576518 13.9528 0.431284 13.9097L6.12395 -5.26301Z" fill="white" mask="url(#path-2-inside-1_4433_30444)"/>
<mask id="path-4-inside-2_4433_30444" fill="white">
<path fill-rule="evenodd" clip-rule="evenodd" d="M7.54179 10.0484C7.49303 10.037 7.44366 10.0271 7.39372 10.019C7.38592 10.0177 7.37811 10.0165 7.37029 10.0153L7.3679 10.015L7.3647 10.0145C7.35975 10.0137 7.35434 10.013 7.3435 10.0114L7.3397 10.0108C7.26016 9.99848 7.25642 9.88529 7.33498 9.86771L7.33873 9.86691C7.34944 9.86464 7.3548 9.86349 7.35968 9.86244L7.36285 9.86174L7.3652 9.86123C7.37293 9.85953 7.38064 9.85778 7.38835 9.856C7.43764 9.8446 7.48626 9.83155 7.53415 9.81694C7.57506 9.80445 7.61544 9.79081 7.65525 9.77607C8.29948 9.53745 8.79511 9.00795 8.99075 8.34944C9.00283 8.30875 9.01377 8.26755 9.02354 8.22591C9.03496 8.17716 9.04478 8.12779 9.05291 8.07785C9.05417 8.07004 9.05542 8.06224 9.0566 8.05441L9.05696 8.05203L9.05744 8.04882C9.05817 8.04396 9.05895 8.03861 9.06046 8.02805L9.06052 8.02763L9.06108 8.02383C9.07343 7.94428 9.18663 7.94055 9.2042 8.01911L9.20501 8.02286C9.20728 8.03357 9.20842 8.03892 9.20948 8.04381L9.21017 8.04697L9.21069 8.04933C9.21238 8.05706 9.21414 8.06477 9.21591 8.07247C9.22732 8.12177 9.24037 8.17038 9.25497 8.21828C9.26747 8.25918 9.28111 8.29957 9.29584 8.33937C9.53446 8.98361 10.064 9.47923 10.7225 9.67487C10.7632 9.68695 10.8044 9.6979 10.846 9.70767C10.8948 9.71909 10.9441 9.72891 10.9941 9.73704C11.0019 9.7383 11.0097 9.73954 11.0175 9.74073L11.0199 9.74108L11.0231 9.74157L11.0282 9.74231L11.0443 9.74465L11.0481 9.74521C11.1276 9.75756 11.1314 9.87075 11.0528 9.88833L11.0491 9.88913L11.0368 9.89172L11.0281 9.8936L11.0249 9.8943L11.0226 9.89481C11.0149 9.89651 11.0071 9.89826 10.9994 9.90004C10.9501 9.91144 10.9015 9.92449 10.8536 9.9391C10.8127 9.9516 10.7723 9.96523 10.7325 9.97997C10.0883 10.2186 9.59268 10.7481 9.39704 11.4066C9.38496 11.4473 9.37402 11.4885 9.36424 11.5301C9.35283 11.5789 9.34301 11.6283 9.33488 11.6782C9.33362 11.686 9.33237 11.6938 9.33119 11.7016L9.33083 11.704L9.33035 11.7072C9.32962 11.7121 9.32884 11.7174 9.32733 11.728L9.32671 11.7322C9.31435 11.8118 9.20116 11.8155 9.18359 11.7369L9.18278 11.7332C9.18051 11.7225 9.17936 11.7171 9.17831 11.7122L9.17762 11.7091L9.1771 11.7067C9.17541 11.699 9.17365 11.6913 9.17188 11.6836C9.16047 11.6343 9.14742 11.5857 9.13281 11.5378C9.12032 11.4969 9.10668 11.4565 9.09195 11.4167C8.85333 10.7724 8.32383 10.2768 7.66531 10.0812C7.62463 10.0691 7.58343 10.0581 7.54179 10.0484Z"/>
</mask>
<path fill-rule="evenodd" clip-rule="evenodd" d="M7.54179 10.0484C7.49303 10.037 7.44366 10.0271 7.39372 10.019C7.38592 10.0177 7.37811 10.0165 7.37029 10.0153L7.3679 10.015L7.3647 10.0145C7.35975 10.0137 7.35434 10.013 7.3435 10.0114L7.3397 10.0108C7.26016 9.99848 7.25642 9.88529 7.33498 9.86771L7.33873 9.86691C7.34944 9.86464 7.3548 9.86349 7.35968 9.86244L7.36285 9.86174L7.3652 9.86123C7.37293 9.85953 7.38064 9.85778 7.38835 9.856C7.43764 9.8446 7.48626 9.83155 7.53415 9.81694C7.57506 9.80445 7.61544 9.79081 7.65525 9.77607C8.29948 9.53745 8.79511 9.00795 8.99075 8.34944C9.00283 8.30875 9.01377 8.26755 9.02354 8.22591C9.03496 8.17716 9.04478 8.12779 9.05291 8.07785C9.05417 8.07004 9.05542 8.06224 9.0566 8.05441L9.05696 8.05203L9.05744 8.04882C9.05817 8.04396 9.05895 8.03861 9.06046 8.02805L9.06052 8.02763L9.06108 8.02383C9.07343 7.94428 9.18663 7.94055 9.2042 8.01911L9.20501 8.02286C9.20728 8.03357 9.20842 8.03892 9.20948 8.04381L9.21017 8.04697L9.21069 8.04933C9.21238 8.05706 9.21414 8.06477 9.21591 8.07247C9.22732 8.12177 9.24037 8.17038 9.25497 8.21828C9.26747 8.25918 9.28111 8.29957 9.29584 8.33937C9.53446 8.98361 10.064 9.47923 10.7225 9.67487C10.7632 9.68695 10.8044 9.6979 10.846 9.70767C10.8948 9.71909 10.9441 9.72891 10.9941 9.73704C11.0019 9.7383 11.0097 9.73954 11.0175 9.74073L11.0199 9.74108L11.0231 9.74157L11.0282 9.74231L11.0443 9.74465L11.0481 9.74521C11.1276 9.75756 11.1314 9.87075 11.0528 9.88833L11.0491 9.88913L11.0368 9.89172L11.0281 9.8936L11.0249 9.8943L11.0226 9.89481C11.0149 9.89651 11.0071 9.89826 10.9994 9.90004C10.9501 9.91144 10.9015 9.92449 10.8536 9.9391C10.8127 9.9516 10.7723 9.96523 10.7325 9.97997C10.0883 10.2186 9.59268 10.7481 9.39704 11.4066C9.38496 11.4473 9.37402 11.4885 9.36424 11.5301C9.35283 11.5789 9.34301 11.6283 9.33488 11.6782C9.33362 11.686 9.33237 11.6938 9.33119 11.7016L9.33083 11.704L9.33035 11.7072C9.32962 11.7121 9.32884 11.7174 9.32733 11.728L9.32671 11.7322C9.31435 11.8118 9.20116 11.8155 9.18359 11.7369L9.18278 11.7332C9.18051 11.7225 9.17936 11.7171 9.17831 11.7122L9.17762 11.7091L9.1771 11.7067C9.17541 11.699 9.17365 11.6913 9.17188 11.6836C9.16047 11.6343 9.14742 11.5857 9.13281 11.5378C9.12032 11.4969 9.10668 11.4565 9.09195 11.4167C8.85333 10.7724 8.32383 10.2768 7.66531 10.0812C7.62463 10.0691 7.58343 10.0581 7.54179 10.0484Z" fill="#FAFAFA"/>
<path d="M7.54179 10.0484L9.82643 0.312846L9.82171 0.31174L7.54179 10.0484ZM7.39372 10.019L9.00065 0.148949L8.98862 0.147006L7.39372 10.019ZM7.37029 10.0153L8.86766 0.128047L8.85444 0.126062L7.37029 10.0153ZM7.3679 10.015L5.87819 19.9034L5.88375 19.9042L7.3679 10.015ZM7.3647 10.0145L8.85441 0.126057L8.83959 0.123826L8.82477 0.121639L7.3647 10.0145ZM7.3435 10.0114L5.88923 19.9051L5.9038 19.9072L5.91838 19.9093L7.3435 10.0114ZM7.3397 10.0108L5.80475 19.8923L5.84507 19.8986L5.88544 19.9045L7.3397 10.0108ZM7.33498 9.86771L5.23113 0.0915288L5.19154 0.100048L5.15202 0.108889L7.33498 9.86771ZM7.33873 9.86691L5.26436 0.0844238L5.24961 0.0875504L5.23488 0.0907214L7.33873 9.86691ZM7.35968 9.86244L9.46867 19.6375L9.48296 19.6344L9.49723 19.6313L7.35968 9.86244ZM7.36285 9.86174L5.23103 0.0916164L5.22529 0.092872L7.36285 9.86174ZM7.3652 9.86123L9.49702 19.6314L9.504 19.6298L9.51099 19.6283L7.3652 9.86123ZM7.38835 9.856L9.63049 19.6014L9.64236 19.5987L7.38835 9.856ZM7.53415 9.81694L10.4509 19.3821L10.4557 19.3807L7.53415 9.81694ZM7.65525 9.77607L11.1273 19.154L11.1286 19.1535L7.65525 9.77607ZM8.99075 8.34944L18.5766 11.1974L18.5771 11.1958L8.99075 8.34944ZM9.02354 8.22591L18.7591 10.5106L18.7602 10.5058L9.02354 8.22591ZM9.05291 8.07785L18.923 9.68477L18.9249 9.67275L9.05291 8.07785ZM9.0566 8.05441L18.9439 9.55179L18.9459 9.53856L9.0566 8.05441ZM9.05696 8.05203L-0.831557 6.56298L-0.832293 6.56788L9.05696 8.05203ZM9.05744 8.04882L18.946 9.53787L18.9462 9.53612L9.05744 8.04882ZM9.06046 8.02805L-0.831506 6.56209L-0.835191 6.58695L-0.838752 6.61184L9.06046 8.02805ZM9.06052 8.02763L18.9525 9.49359L18.9542 9.48184L9.06052 8.02763ZM9.06108 8.02383L-0.820414 6.48887L-0.826682 6.52922L-0.83262 6.56962L9.06108 8.02383ZM9.2042 8.01911L18.9804 5.91531L18.9719 5.87569L18.963 5.83614L9.2042 8.01911ZM9.20501 8.02286L18.9875 5.94848L18.9844 5.93377L18.9812 5.91906L9.20501 8.02286ZM9.20948 8.04381L-0.5656 10.1528L-0.562427 10.1675L-0.559209 10.1822L9.20948 8.04381ZM9.21017 8.04697L18.9801 5.91428L18.9789 5.90857L9.21017 8.04697ZM9.21069 8.04933L-0.559259 10.182L-0.556383 10.1951L9.21069 8.04933ZM9.21591 8.07247L-0.529495 10.3146L-0.526749 10.3265L9.21591 8.07247ZM9.25497 8.21828L-0.310193 11.1351L-0.308751 11.1398L9.25497 8.21828ZM9.29584 8.33937L-0.0820438 11.8114L-0.0815768 11.8127L9.29584 8.33937ZM10.7225 9.67487L7.87454 19.2608L7.87614 19.2612L10.7225 9.67487ZM10.846 9.70767L8.56136 19.4432L8.56608 19.4443L10.846 9.70767ZM10.9941 9.73704L9.38714 19.6071L9.39917 19.609L10.9941 9.73704ZM11.0175 9.74073L9.52013 19.628L9.53326 19.63L11.0175 9.74073ZM11.0199 9.74108L12.5095 -0.147353L12.5041 -0.148154L11.0199 9.74108ZM11.0231 9.74157L9.53352 19.63L9.55307 19.6329L9.57263 19.6358L11.0231 9.74157ZM11.0282 9.74231L9.57771 19.6366L9.58619 19.6378L9.59467 19.639L11.0282 9.74231ZM11.0443 9.74465L12.4991 -0.14897L12.4884 -0.150534L12.4778 -0.152075L11.0443 9.74465ZM11.0481 9.74521L12.583 -0.136288L12.543 -0.142513L12.5029 -0.148412L11.0481 9.74521ZM11.0528 9.88833L13.1559 19.6647L13.1959 19.6561L13.2358 19.6472L11.0528 9.88833ZM11.0491 9.88913L13.1177 19.6728L13.1349 19.6692L13.1522 19.6655L11.0491 9.88913ZM11.0368 9.89172L8.9682 0.108021L8.94642 0.112625L8.92467 0.117326L11.0368 9.89172ZM11.0281 9.8936L8.91596 0.119208L8.90296 0.122017L8.88997 0.124859L11.0281 9.8936ZM11.0249 9.8943L13.1578 19.6642L13.1631 19.663L11.0249 9.8943ZM11.0226 9.89481L8.88972 0.124906L8.8768 0.127743L11.0226 9.89481ZM10.9994 9.90004L8.7573 0.154631L8.74543 0.157377L10.9994 9.90004ZM10.8536 9.9391L7.93686 0.373934L7.93214 0.375375L10.8536 9.9391ZM10.7325 9.97997L7.26047 0.602082L7.25921 0.602549L10.7325 9.97997ZM9.39704 11.4066L-0.188848 8.55866L-0.189323 8.56027L9.39704 11.4066ZM9.36424 11.5301L-0.37128 9.24549L-0.372386 9.25021L9.36424 11.5301ZM9.33488 11.6782L-0.535177 10.0713L-0.53712 10.0833L9.33488 11.6782ZM9.33119 11.7016L-0.556079 10.2043L-0.55805 10.2174L9.33119 11.7016ZM9.33083 11.704L19.2193 13.1936L19.2201 13.1883L9.33083 11.704ZM9.33035 11.7072L-0.558089 10.2176L-0.558432 10.2199L9.33035 11.7072ZM9.32733 11.728L19.2208 13.1839L19.2237 13.164L19.2265 13.1442L9.32733 11.728ZM9.32671 11.7322L19.2082 13.2672L19.2143 13.2277L19.2202 13.1881L9.32671 11.7322ZM9.18359 11.7369L-0.592751 13.8401L-0.584158 13.88L-0.575238 13.9199L9.18359 11.7369ZM9.18278 11.7332L-0.599056 13.8106L-0.596324 13.8235L-0.593558 13.8363L9.18278 11.7332ZM9.17831 11.7122L18.952 9.5966L18.9496 9.5857L18.9472 9.57481L9.17831 11.7122ZM9.17762 11.7091L-0.59228 13.8419L-0.591283 13.8465L9.17762 11.7091ZM9.1771 11.7067L18.947 9.57384L18.9442 9.56093L9.1771 11.7067ZM9.17188 11.6836L18.9173 9.44142L18.9145 9.42955L9.17188 11.6836ZM9.13281 11.5378L18.698 8.62098L18.6965 8.61626L9.13281 11.5378ZM9.09195 11.4167L18.4698 7.9446L18.4694 7.94334L9.09195 11.4167ZM7.66531 10.0812L10.5133 0.495279L10.5116 0.494803L7.66531 10.0812ZM9.82171 0.31174C9.55335 0.248902 9.27954 0.194363 9.00064 0.148957L5.7868 19.889C5.60779 19.8599 5.43271 19.825 5.26187 19.785L9.82171 0.31174ZM8.98862 0.147006C8.96762 0.143614 8.92285 0.136415 8.86766 0.128056L5.87291 19.9026C5.83337 19.8966 5.80421 19.8919 5.79883 19.891L8.98862 0.147006ZM8.85444 0.126062L8.85205 0.125704L5.88375 19.9042L5.88614 19.9046L8.85444 0.126062ZM8.85761 0.12654L8.85441 0.126057L5.87499 19.9029L5.87819 19.9034L8.85761 0.12654ZM8.82477 0.121639C8.8033 0.11847 8.78491 0.115809 8.76862 0.113464L5.91838 19.9093C5.92132 19.9097 5.92058 19.9096 5.91786 19.9092C5.91428 19.9087 5.90965 19.9081 5.90462 19.9073L8.82477 0.121639ZM8.79777 0.117703L8.79397 0.117145L5.88544 19.9045L5.88923 19.9051L8.79777 0.117703ZM8.87466 0.129343C19.7103 1.81252 20.2191 17.2328 9.51794 19.6265L5.15202 0.108889C-5.70626 2.53779 -5.19002 18.1844 5.80475 19.8923L8.87466 0.129343ZM9.43884 19.6439L9.44259 19.6431L5.23488 0.0907214L5.23113 0.0915288L9.43884 19.6439ZM9.41311 19.6494C9.42935 19.6459 9.4475 19.6421 9.46867 19.6375L5.25068 0.0873595C5.25561 0.0862973 5.26017 0.0853197 5.26374 0.0845571C5.26646 0.0839759 5.26722 0.0838162 5.26436 0.0844238L9.41311 19.6494ZM9.49723 19.6313L9.5004 19.6306L5.22529 0.092872L5.22212 0.093565L9.49723 19.6313ZM9.49466 19.6319L9.49702 19.6314L5.23339 0.0911039L5.23103 0.0916181L9.49466 19.6319ZM9.51099 19.6283C9.56557 19.6163 9.60982 19.6062 9.63049 19.6014L5.1462 0.110606C5.15146 0.109396 5.18029 0.102758 5.21942 0.0941617L9.51099 19.6283ZM9.64236 19.5987C9.9177 19.535 10.1873 19.4625 10.4509 19.3821L4.61737 0.251775C4.78518 0.200604 4.95758 0.154236 5.13433 0.113345L9.64236 19.5987ZM10.4557 19.3807C10.6815 19.3117 10.9055 19.2361 11.1273 19.154L4.18318 0.398187C4.32538 0.345537 4.4686 0.297219 4.61265 0.253216L10.4557 19.3807ZM11.1286 19.1535C14.7248 17.8215 17.4847 14.8727 18.5766 11.1974L-0.595141 5.5015C0.105488 3.14325 1.87419 1.25342 4.18192 0.398654L11.1286 19.1535ZM18.5771 11.1958C18.6444 10.9692 18.7051 10.7406 18.7591 10.5106L-0.711979 5.94127C-0.677526 5.79446 -0.63874 5.64834 -0.595617 5.50311L18.5771 11.1958ZM18.7602 10.5058C18.823 10.2375 18.8775 9.9637 18.923 9.68477L-0.817134 6.47093C-0.787984 6.29188 -0.753083 6.11681 -0.713086 5.94599L18.7602 10.5058ZM18.9249 9.67275C18.9283 9.65173 18.9355 9.60697 18.9439 9.55179L-0.830657 6.55704C-0.82467 6.51751 -0.819958 6.48836 -0.819084 6.48296L18.9249 9.67275ZM18.9459 9.53856L18.9462 9.53618L-0.832293 6.56788L-0.832651 6.57026L18.9459 9.53856ZM18.9455 9.54108L18.946 9.53787L-0.831073 6.55977L-0.831556 6.56298L18.9455 9.54108ZM18.9462 9.53612C18.953 9.49135 18.9584 9.45316 18.9597 9.44425L-0.838752 6.61184C-0.83931 6.61574 -0.838712 6.61154 -0.837677 6.60441C-0.83638 6.59547 -0.834172 6.58037 -0.831338 6.56153L18.9462 9.53612ZM18.9524 9.494L18.9525 9.49359L-0.831444 6.56167L-0.831506 6.56209L18.9524 9.494ZM18.9542 9.48184L18.9548 9.47804L-0.83262 6.56962L-0.833178 6.57342L18.9542 9.48184ZM18.9426 9.55879C17.2594 20.3945 1.83913 20.9032 -0.554625 10.2021L18.963 5.83614C16.5341 -5.02213 0.887474 -4.50589 -0.820414 6.48887L18.9426 9.55879ZM-0.571996 10.1229L-0.571189 10.1267L18.9812 5.91906L18.9804 5.91531L-0.571996 10.1229ZM-0.577475 10.0972C-0.574035 10.1135 -0.570171 10.1316 -0.5656 10.1528L18.9846 5.93481C18.9856 5.93975 18.9866 5.94431 18.9874 5.94788C18.9879 5.9506 18.9881 5.95136 18.9875 5.94848L-0.577475 10.0972ZM-0.559209 10.1822L-0.558516 10.1854L18.9789 5.90857L18.9782 5.9054L-0.559209 10.1822ZM-0.559764 10.1797L-0.55925 10.182L18.9806 5.91664L18.9801 5.91428L-0.559764 10.1797ZM-0.556383 10.1951C-0.544387 10.2497 -0.534239 10.294 -0.529488 10.3146L18.9613 5.83033C18.9625 5.83556 18.9692 5.8644 18.9778 5.90355L-0.556383 10.1951ZM-0.526749 10.3265C-0.46307 10.6017 -0.390602 10.8714 -0.310192 11.1351L18.8201 5.3015C18.8713 5.4694 18.9177 5.6418 18.9586 5.81846L-0.526749 10.3265ZM-0.308751 11.1398C-0.239752 11.3657 -0.164161 11.5896 -0.0820437 11.8114L18.6737 4.86731C18.7264 5.00949 18.7747 5.15271 18.8187 5.29678L-0.308751 11.1398ZM-0.0815768 11.8127C1.25043 15.4089 4.19926 18.1688 7.87454 19.2608L13.5704 0.0889851C15.9287 0.789614 17.8185 2.55832 18.6733 4.86604L-0.0815768 11.8127ZM7.87614 19.2612C8.10275 19.3285 8.33126 19.3892 8.56136 19.4432L13.1306 -0.0278529C13.2775 0.00660152 13.4236 0.0453874 13.5688 0.0885092L7.87614 19.2612ZM8.56608 19.4443C8.8344 19.5071 9.10821 19.5617 9.38714 19.6071L12.601 -0.133008C12.78 -0.103857 12.9551 -0.0689564 13.1259 -0.0289598L8.56608 19.4443ZM9.39917 19.609C9.42019 19.6124 9.46495 19.6196 9.52013 19.628L12.5149 -0.146531C12.5544 -0.140544 12.5836 -0.135832 12.589 -0.134958L9.39917 19.609ZM9.53326 19.63L9.53565 19.6303L12.5041 -0.148154L12.5017 -0.148512L9.53326 19.63ZM9.53031 19.6295L9.53352 19.63L12.5127 -0.146868L12.5095 -0.147351L9.53031 19.6295ZM9.57263 19.6358L9.57771 19.6366L12.4786 -0.151938L12.4736 -0.152682L9.57263 19.6358ZM9.59467 19.639L9.6108 19.6414L12.4778 -0.152075L12.4617 -0.15441L9.59467 19.639ZM9.58952 19.6383L9.59332 19.6388L12.5029 -0.148412L12.4991 -0.14897L9.58952 19.6383ZM9.51313 19.6267C-1.32255 17.9435 -1.83132 2.52326 8.86984 0.129502L13.2358 19.6472C24.094 17.2183 23.5778 1.5716 12.583 -0.136288L9.51313 19.6267ZM8.94967 0.111988L8.94592 0.112796L13.1522 19.6655L13.1559 19.6647L8.94967 0.111988ZM8.98043 0.105434L8.9682 0.108021L13.1054 19.6754L13.1177 19.6728L8.98043 0.105434ZM8.92467 0.117326L8.91596 0.119208L13.1403 19.668L13.149 19.6661L8.92467 0.117326ZM8.88997 0.124859L8.8868 0.125553L13.1631 19.663L13.1662 19.6623L8.88997 0.124859ZM8.89208 0.1244L8.88972 0.124915L13.1555 19.6647L13.1578 19.6642L8.89208 0.1244ZM8.8768 0.127743C8.82223 0.139733 8.778 0.149876 8.7573 0.154639L13.2416 19.6454C13.2363 19.6467 13.2075 19.6533 13.1684 19.6619L8.8768 0.127743ZM8.74543 0.157377C8.47017 0.221059 8.20054 0.293527 7.93686 0.373935L13.7704 19.5043C13.6025 19.5555 13.4301 19.6018 13.2535 19.6427L8.74543 0.157377ZM7.93214 0.375375C7.70628 0.444369 7.48228 0.519959 7.26047 0.602083L14.2046 19.3579C14.0624 19.4105 13.9192 19.4588 13.7751 19.5028L7.93214 0.375375ZM7.25921 0.602549C3.66302 1.93455 0.903067 4.88338 -0.188847 8.55866L18.9829 14.2545C18.2823 16.6128 16.5136 18.5026 14.2059 19.3574L7.25921 0.602549ZM-0.189323 8.56027C-0.256612 8.78689 -0.317286 9.01541 -0.371279 9.24549L19.0998 13.8148C19.0653 13.9616 19.0265 14.1077 18.9834 14.2529L-0.189323 8.56027ZM-0.372386 9.25021C-0.435231 9.5186 -0.489768 9.79241 -0.535169 10.0713L19.2049 13.2851C19.1758 13.4641 19.1409 13.6392 19.1009 13.81L-0.372386 9.25021ZM-0.53712 10.0833C-0.5405 10.1042 -0.547705 10.149 -0.55607 10.2043L19.2184 13.199C19.2125 13.2386 19.2077 13.2678 19.2069 13.2731L-0.53712 10.0833ZM-0.55805 10.2174L-0.558408 10.2198L19.2201 13.1883L19.2204 13.1859L-0.55805 10.2174ZM-0.557606 10.2144L-0.558089 10.2176L19.2188 13.1968L19.2193 13.1936L-0.557606 10.2144ZM-0.558432 10.2199C-0.565184 10.2648 -0.57065 10.3032 -0.57188 10.3118L19.2265 13.1442C19.2271 13.1402 19.2265 13.1444 19.2255 13.1515C19.2242 13.1604 19.222 13.1755 19.2191 13.1945L-0.558432 10.2199ZM-0.566123 10.2721L-0.566743 10.2763L19.2202 13.1881L19.2208 13.1839L-0.566123 10.2721ZM-0.554783 10.1973C1.12839 -0.63842 16.5487 -1.14719 18.9424 9.55397L-0.575238 13.9199C1.85366 24.7782 17.5003 24.2619 19.2082 13.2672L-0.554783 10.1973ZM18.9599 9.63379L18.9591 9.63004L-0.593558 13.8363L-0.592751 13.8401L18.9599 9.63379ZM18.9646 9.65576C18.9637 9.65147 18.958 9.6247 18.952 9.5966L-0.595331 13.8279C-0.59776 13.8167 -0.599531 13.8084 -0.600047 13.8059C-0.600291 13.8048 -0.60037 13.8044 -0.600151 13.8054C-0.599933 13.8065 -0.599615 13.808 -0.599056 13.8106L18.9646 9.65576ZM18.9472 9.57481L18.9465 9.57165L-0.591283 13.8465L-0.59059 13.8497L18.9472 9.57481ZM18.9475 9.5762L18.947 9.57385L-0.592794 13.8396L-0.592279 13.8419L18.9475 9.5762ZM18.9442 9.56093C18.9322 9.50636 18.922 9.46212 18.9173 9.44142L-0.573521 13.9257C-0.574736 13.9204 -0.581371 13.8916 -0.589965 13.8525L18.9442 9.56093ZM18.9145 9.42955C18.8508 9.15425 18.7784 8.88461 18.698 8.62098L-0.432351 14.4545C-0.483532 14.2867 -0.529897 14.1143 -0.570782 13.9376L18.9145 9.42955ZM18.6965 8.61626C18.6275 8.39038 18.5519 8.16639 18.4698 7.9446L-0.285939 14.8887C-0.338581 14.7466 -0.3869 14.6033 -0.430911 14.4593L18.6965 8.61626ZM18.4694 7.94334C17.1374 4.34714 14.1885 1.58719 10.5133 0.495279L4.81738 19.6671C2.45912 18.9664 0.569292 17.1977 -0.285472 14.89L18.4694 7.94334ZM10.5116 0.494803C10.285 0.427518 10.0565 0.366844 9.82643 0.312847L5.25714 19.7839C5.11033 19.7494 4.96421 19.7107 4.81898 19.6675L10.5116 0.494803Z" fill="white" mask="url(#path-4-inside-2_4433_30444)"/>
<defs>
<linearGradient id="paint0_linear_4433_30444" x1="0.133056" y1="3.07535e-07" x2="14.9468" y2="1.08609" gradientUnits="userSpaceOnUse">
<stop stop-color="#456BDE"/>
<stop offset="1" stop-color="#FC75FF"/>
</linearGradient>
</defs>
</svg>
